<svg width="40" height="40" viewBox="0 0 40 40" fill="none" xmlns="http://www.w3.org/2000/svg">
<g clip-path="url(#clip0_12_43)">
<path d="M19.8288 0.0112457C9.69972 0.0112457 10.3322 4.4038 10.3322 4.4038L10.3434 8.95462H20.0094V10.3209H6.50424C6.50424 10.3209 0.0226593 9.58581 0.0226593 19.8059C0.0226593 30.0264 5.67994 29.6639 5.67994 29.6639H9.05618V24.9212C9.05618 24.9212 8.87417 19.264 14.6232 19.264H24.2101C24.2101 19.264 29.5963 19.351 29.5963 14.0584V5.30731C29.5963 5.30731 30.4143 0.0112457 19.8288 0.0112457ZM14.499 3.07158C14.7274 3.07138 14.9536 3.11622 15.1646 3.20353C15.3757 3.29085 15.5675 3.41892 15.729 3.58044C15.8905 3.74195 16.0186 3.93373 16.1059 4.14479C16.1932 4.35586 16.2381 4.58207 16.2379 4.81048C16.2381 5.0389 16.1932 5.26511 16.1059 5.47617C16.0186 5.68724 15.8905 5.87902 15.729 6.04053C15.5675 6.20204 15.3757 6.33012 15.1646 6.41743C14.9536 6.50475 14.7274 6.54959 14.499 6.54938C14.2705 6.54959 14.0443 6.50475 13.8333 6.41743C13.6222 6.33012 13.4304 6.20204 13.2689 6.04053C13.1074 5.87902 12.9793 5.68724 12.892 5.47617C12.8047 5.26511 12.7598 5.0389 12.7601 4.81048C12.7598 4.58207 12.8047 4.35586 12.892 4.14479C12.9793 3.93373 13.1074 3.74195 13.2689 3.58044C13.4304 3.41892 13.6222 3.29085 13.8333 3.20353C14.0443 3.11622 14.2705 3.07138 14.499 3.07158Z" fill="url(#paint0_linear_12_43)"/>
<path d="M20.1164 39.7035C30.2454 39.7035 29.613 35.3109 29.613 35.3109L29.6017 30.7602H19.9356V29.394H33.4408C33.4408 29.394 39.9223 30.129 39.9223 19.9086C39.9223 9.6883 34.2651 10.0508 34.2651 10.0508H30.8888V14.7933C30.8888 14.7933 31.0708 20.4506 25.3218 20.4506H15.7349C15.7349 20.4506 10.3487 20.3636 10.3487 25.6563V34.4075C10.3487 34.4075 9.53082 39.7035 20.1162 39.7035H20.1164ZM25.4462 36.6434C25.2178 36.6436 24.9916 36.5988 24.7805 36.5115C24.5694 36.4242 24.3777 36.2961 24.2162 36.1346C24.0546 35.9731 23.9266 35.7813 23.8392 35.5702C23.7519 35.3592 23.7071 35.1329 23.7073 34.9045C23.7071 34.6761 23.7519 34.4499 23.8392 34.2388C23.9265 34.0277 24.0546 33.8359 24.2161 33.6744C24.3776 33.5128 24.5694 33.3848 24.7805 33.2974C24.9915 33.2101 25.2178 33.1653 25.4462 33.1655C25.6746 33.1653 25.9008 33.2101 26.1119 33.2974C26.323 33.3847 26.5147 33.5128 26.6762 33.6743C26.8378 33.8358 26.9658 34.0276 27.0532 34.2387C27.1405 34.4497 27.1853 34.676 27.1851 34.9044C27.1853 35.1328 27.1405 35.359 27.0532 35.5701C26.9658 35.7811 26.8378 35.9729 26.6762 36.1344C26.5147 36.2959 26.323 36.424 26.1119 36.5113C25.9008 36.5986 25.6746 36.6436 25.4462 36.6434Z" fill="url(#paint1_linear_12_43)"/>
</g>
<defs>
<linearGradient id="paint0_linear_12_43" x1="383.457" y1="357.019" x2="2360.76" y2="2314.6" gradientUnits="userSpaceOnUse">
<stop stop-color="#387EB8"/>
<stop offset="1" stop-color="#366994"/>
</linearGradient>
<linearGradient id="paint1_linear_12_43" x1="576.299" y1="620.304" x2="2699.7" y2="2627.62" gradientUnits="userSpaceOnUse">
<stop stop-color="#FFE052"/>
<stop offset="1" stop-color="#FFC331"/>
</linearGradient>
<clipPath id="clip0_12_43">
<rect width="40" height="39.84" fill="white"/>
</clipPath>
</defs>
</svg>
