<svg width="40" height="40" viewBox="0 0 40 40" fill="none" xmlns="http://www.w3.org/2000/svg">
<g clip-path="url(#clip0_12_58)">
<path d="M17.6256 39.9744C13.8813 39.7046 10.1807 38.7621 7.91111 37.5004C6.61835 36.7818 5.63345 35.8986 5.24697 35.1114L5.01703 34.6431V19.9527V5.26242L5.19898 4.89296C6.01211 3.24211 8.60716 1.75385 12.2297 0.860876C13.4594 0.557733 15.2346 0.25585 16.6829 0.103621C18.1617 -0.0518647 22.0815 -0.0282087 23.5567 0.145334C27.4774 0.605963 30.8137 1.6372 32.8697 3.024C33.6626 3.5588 34.4762 4.41453 34.7518 5.00356L34.9881 5.50858L34.9679 20.1545L34.9477 34.8004L34.758 35.1858C34.6536 35.3978 34.3385 35.8148 34.0577 36.1124C32.3481 37.9247 28.681 39.2654 23.871 39.8366C22.8906 39.953 18.6314 40.047 17.6256 39.9744ZM24.5256 27.3868C24.5112 27.3492 23.9515 26.8506 23.2817 26.2787C22.612 25.7067 22.0352 25.2119 22 25.179C21.9647 25.1462 22.0885 25.0299 22.2749 24.9206C22.4614 24.8112 22.8187 24.5071 23.0689 24.2447C23.8006 23.4775 24.1459 22.5297 24.1459 21.2882C24.1459 20.0661 23.7735 19.08 23.0278 18.3272C22.2762 17.5685 21.4132 17.2425 20.1564 17.2425C18.2192 17.2425 16.7315 18.3728 16.2566 20.2054C16.0933 20.8357 16.0941 22.1094 16.2583 22.6684C16.6865 24.1263 17.8529 25.1851 19.3044 25.4338C19.7956 25.5179 19.8621 25.5542 20.197 25.9203C20.396 26.1379 20.8044 26.5722 21.1046 26.8855L21.6503 27.455H23.101C23.899 27.455 24.54 27.4243 24.5256 27.3868ZM19.5504 23.3248C19.2012 23.1427 19.0691 23.0014 18.87 22.5965C18.7161 22.2838 18.6898 22.1059 18.6881 21.3668C18.6864 20.6158 18.7103 20.4535 18.8709 20.1274C19.1337 19.5937 19.4958 19.3411 20.056 19.3006C20.8357 19.244 21.2858 19.6267 21.5217 20.5464C21.8109 21.6739 21.4928 22.8727 20.7989 23.2705C20.4349 23.4792 19.8919 23.5029 19.5504 23.3248ZM13.1201 25.4178C14.6411 25.1293 15.5045 24.2448 15.5045 22.975C15.5045 21.8485 14.9471 21.1921 13.4064 20.5043C12.5245 20.1106 12.2051 19.8635 12.2051 19.5747C12.2051 19.3354 12.5082 19.0731 12.8611 19.0073C13.2057 18.9429 14.1196 19.1017 14.6593 19.3197L15.1117 19.5024V18.501V17.4996L14.6207 17.3907C14.3173 17.3234 13.6796 17.283 12.9514 17.2851C11.9198 17.2851 11.7178 17.3102 11.3296 17.4644C10.1956 17.9145 9.65749 18.6814 9.66609 19.8349C9.67415 20.9148 10.2438 21.5884 11.6617 22.1944C12.4982 22.552 12.8335 22.8242 12.8335 23.146C12.8335 23.8297 11.6943 23.9138 10.4882 23.3192C10.1579 23.1564 9.8611 23.0098 9.82869 22.9936C9.79629 22.9774 9.76978 23.4452 9.76978 24.0331C9.76978 25.0974 9.77092 25.1025 9.9636 25.1759C10.6892 25.4517 12.2929 25.5746 13.1201 25.4178ZM30.5091 24.4305V23.5271H29.1343H27.7595V20.4241V17.321H26.5419H25.3243V21.3275V25.334H27.9167H30.5091V24.4305ZM22.0248 8.59909C24.4445 8.43126 26.2583 8.1144 27.8544 7.58074C29.4445 7.04909 30.3838 6.40578 30.5939 5.70452C30.6748 5.43429 30.669 5.33179 30.5559 5.03551C30.0486 3.70722 27.2148 2.68669 22.8845 2.27292C21.0322 2.09589 17.6635 2.15328 15.8974 2.39185C13.2025 2.75596 11.0155 3.43229 10.043 4.20229C8.0759 5.76 10.1562 7.47328 14.9939 8.27968C17.0915 8.62934 19.8091 8.7528 22.0248 8.59909Z" fill="#00BCF2"/>
</g>
<defs>
<clipPath id="clip0_12_58">
<rect width="40" height="40" fill="white"/>
</clipPath>
</defs>
</svg>
